<?xml version="1.0" encoding="utf-8"?>
<!-- Generator: Adobe Illustrator 19.0.0, SVG Export Plug-In . SVG Version: 6.00 Build 0)  -->
<svg version="1.1" id="Layer_1" xmlns="http://www.w3.org/2000/svg"  x="0px" y="0px"
	 viewBox="0 0 2500 1100" style="enable-background:new 0 0 2500 1100;" xml:space="preserve">
<style type="text/css">
	.st0{fill:#FFFFFF;stroke:#010101;stroke-miterlimit:10;}
	.st1{fill:#BFC0C2;stroke:#010101;stroke-miterlimit:10;}
	.st2{fill:none;stroke:#010101;stroke-miterlimit:10;}
    .room {
    fill: #f4cb42;
    stroke: #000000;
    stroke-width: 2;
    stroke-miterlimit: 10;
  }
	.st3{fill:#010101;}
	.st4{font-family:'Consolas';}
	.st5{font-size:18px;}
	.st6{font-family:'Sylfaen';}
	.st7{font-size:18.5893px;}
</style>
<path class="st0" d="M760,952H166.8V681.8h852.7V628h31v-16h-60V148h169v464h-60v16.5v87.8v-34.2h97.5h389.7V634h40.3v-22h-65V148
	h161v465h-65v22h65v74.9v-27.8h40.5h570.3v165.7L759,848v-42L760,952H603.3V717c51.9,0.2,103.8,0.3,155.7,0.5v41"/>
<rect id="xST1" x="166.8" y="717" class="room" width="60" height="235"/>
<polygon id="XMLID_4_" class="st1" points="237.8,699.3 303,699.3 303,716.8 603.3,717 603.3,952 228,952 228,717 237.8,716.8 "/>
<polygon id="xბიბლიოთეკა" class="room" points="396.8,681.8 396.8,431.8 196.8,431.8 196.8,306.8 611.8,306.8
	611.8,626.8 566.8,626.8 566.8,681.8 "/>
<path id="XMLID_10_" class="st0" d="M781.6,702.1c202.7,96.6,276.5,101.2,297,75c15.3-19.5,9-66.5-13.5-76.5
	c-17.1-7.6-44.1,5.9-66,33"/>
<rect id="x101ა" x="990.5" y="497" class="room" width="60" height="115"/>
<rect id="x102ა" x="1099.5" y="497" class="room" width="60" height="115"/>
<rect id="x103ა" x="1099.5" y="432.3" class="room" width="60" height="65"/>
<rect id="x105ა" x="1099.5" y="317.5" class="room" width="60" height="115"/>
<rect id="x104ა" x="990.5" y="317" class="room" width="60" height="115"/>
<rect id="x106ა" x="1099.5" y="247.5" class="room" width="60" height="70"/>
<rect id="x107ა" x="1099.5" y="148" class="room" width="60" height="99.5"/>
<rect id="x108ა" x="990.5" y="196.3" class="room" width="57.5" height="48.8"/>
<polyline id="xC_pathxE_" class="st2" points="1587.6,682.1 1197,682.1 1197,848 2273.1,848 "/>
<rect id="x101" x="1196.6" y="788.1" class="room" width="150" height="60"/>
<rect id="x102" x="1197" y="682.1" class="room" width="150" height="60"/>
<rect id="x105" x="1409.7" y="682.1" class="room" width="177" height="60"/>
<rect id="x114" x="1658" y="498" class="room" width="65" height="115"/>
<rect id="x115" x="1562" y="497" class="room" width="65" height="115"/>
<polygon id="x116" class="st0" points="1658,428 1723,427 1723,497 1658,498 "/>
<rect id="x117" x="1658" y="312.5" class="room" width="65" height="115"/>
<rect id="x119" x="1658" y="245.6" class="room" width="65" height="66.9"/>
<rect id="x120" x="1658" y="148" class="room" width="65" height="97.5"/>
<line class="st2" x1="1627" y1="148" x2="1627" y2="168.7"/>
<polyline class="st0" points="1562,223.3 1627,223.3 1627,194 "/>
<rect id="x118" x="1562" y="312.5" class="room" width="65" height="115"/>
<rect id="x108" x="1763.5" y="682.1" class="room" width="150" height="50"/>
<rect id="x111" x="1978" y="682.1" class="room" width="150" height="50"/>
<rect id="x103" x="1346.6" y="788.1" class="room" width="63.1" height="60"/>
<rect id="x104" x="1406.8" y="788.1" class="room" width="179.8" height="60"/>
<rect id="x106" x="1586.7" y="788.1" class="room" width="111.3" height="60"/>
<rect id="x107" x="1763.5" y="788.1" class="room" width="150" height="60"/>
<rect id="x109" x="1913.5" y="788.1" class="room" width="65.5" height="60"/>
<rect id="x110" x="1978.3" y="788.1" class="room" width="150" height="60"/>
<rect id="x112" x="2127.7" y="788.1" class="room" width="116.1" height="60"/>
<rect id="x113" x="2243.8" y="737.8" class="room" width="90" height="110"/>
<text transform="matrix(1 0 0 1 181.6 827.65)" class="st3 st4 st5">ST1</text>
<text transform="matrix(1 0 0 1 445 500.95)" class="st3 st6 st5">ბიბლიოთეკა</text>
<text transform="matrix(1 0 0 1 1001.3335 558.1667)" class="st3 st6 st5">101ა</text>
<text transform="matrix(1 0 0 1 1109.3003 561.3335)" class="st3 st6 st5">102ა</text>
<text transform="matrix(0.9683 0 0 1 1110.834 469.3867)" class="st3 st6 st7">103ა</text>
<text transform="matrix(1 0 0 1 1112.3337 388.333)" class="st3 st6 st5">105ა</text>
<text transform="matrix(1 0 0 1 1001.8337 384.0002)" class="st3 st6 st5">104ა</text>
<text transform="matrix(1 0 0 1 1110.333 287.6665)" class="st3 st6 st5">106ა</text>
<text transform="matrix(1 0 0 1 1109.667 207)" class="st3 st6 st5">107ა</text>
<text transform="matrix(1 0 0 1 1253.9998 814.334)" class="st3 st6 st5">101</text>
<text transform="matrix(1 0 0 1 1255.6003 716.334)" class="st3 st6 st5">102</text>
<text transform="matrix(1 0 0 1 1363.6504 818.7671)" class="st3 st6 st5">103</text>
<text transform="matrix(1 0 0 1 1481.8828 818.7676)" class="st3 st6 st5">104</text>
<text transform="matrix(1 0 0 1 1478.7 716.2999)" class="st3 st6 st5">105</text>
<text transform="matrix(1 0 0 1 1628.333 820.7673)" class="st3 st6 st5">106</text>
<text transform="matrix(1 0 0 1 1819.1667 822.1003)" class="st3 st6 st5">107</text>
<text transform="matrix(1 0 0 1 1817 713)" class="st3 st6 st5">108</text>
<text transform="matrix(1 0 0 1 1931.6663 820.7671)" class="st3 st6 st5">109</text>
<text transform="matrix(1 0 0 1 2035.3337 818.1006)" class="st3 st6 st5">110</text>
<text transform="matrix(1 0 0 1 2036.6663 709.866)" class="st3 st6 st5">111</text>
<text transform="matrix(1 0 0 1 2169.717 822.1011)" class="st3 st6 st5">112</text>
<text transform="matrix(1 0 0 1 2273.4331 781.6663)" class="st3 st6 st5">113</text>
<text transform="matrix(1 0 0 1 1577.1667 564.0002)" class="st3 st6 st5">115</text>
<text transform="matrix(1 0 0 1 1676 564.3335)" class="st3 st6 st5">114</text>
<text transform="matrix(1 0 0 1 1676.5002 472.7197)" class="st3 st6 st5">116</text>
<text transform="matrix(1 0 0 1 1674.9998 379.9998)" class="st3 st6 st5">117</text>
<text transform="matrix(1 0 0 1 1577.1663 380)" class="st3 st6 st5">118</text>
<text transform="matrix(1 0 0 1 1675.833 282.333)" class="st3 st6 st5">119</text>
<text transform="matrix(1 0 0 1 1676.5 205.6665)" class="st3 st6 st5">120</text>
<path class="st0" d="M166.8,681.8"/>
</svg>
