<?xml version="1.0" encoding="utf-8"?>
<!-- Generator: Adobe Illustrator 19.0.0, SVG Export Plug-In . SVG Version: 6.00 Build 0)  -->
<svg version="1.1" id="Layer_1" xmlns="http://www.w3.org/2000/svg"  x="0px" y="0px"
	 viewBox="0 0 1700 1600" style="enable-background:new 0 0 1700 1600;" xml:space="preserve">
<style type="text/css">
	.st0{fill:#FFFFFF;stroke:#000000;stroke-miterlimit:10;}
	.st1{fill:#EB42F4;stroke:#000000;stroke-width:2;stroke-miterlimit:10;}
	.st2{fill:#7AF441;stroke:#000000;stroke-width:2;stroke-miterlimit:10;}
	.st3{fill:#FFFF00;stroke:#000000;stroke-width:2;stroke-miterlimit:10;}
	.st4{fill:none;stroke:#000000;stroke-miterlimit:10;}
	.st5{fill:#58595B;stroke:#000000;stroke-miterlimit:10;}
	.cafeteria{fill:#4286f4;stroke:#000000;stroke-miterlimit:10;}
</style>
<polyline id="XMLID_6_" class="st0" points="177,1340 137,1340 137,1175 247,1175 247,1280 247,1235 307,1235 "/>
<rect id="x301" x="177" y="1340" class="st1" width="65" height="65"/>
<rect id="x302" x="242" y="1340" class="st1" width="65" height="65"/>
<rect id="x303" x="307" y="1340" class="st2" width="155" height="65"/>
<rect id="x306" x="462" y="1340" class="st3" width="70" height="65"/>
<rect id="x307-1" x="532" y="1340" class="st3" width="75" height="65"/>
<rect id="x307-2" x="607" y="1340" class="st3" width="75" height="65"/>
<rect id="x310" x="682" y="1340" class="st3" width="115" height="65"/>
<line id="XMLID_4_" class="st4" x1="797" y1="1405" x2="877" y2="1405"/>
<rect id="x311" x="877" y="1340" class="st3" width="35" height="65"/>
<rect id="x312" x="877" y="1235" class="st3" width="35" height="65"/>
<rect id="x313" x="912" y="1340" class="st3" width="115" height="65"/>
<rect id="x315" x="1027" y="1340" class="st3" width="70" height="65"/>
<rect id="x316" x="1097" y="1340" class="st3" width="40" height="65"/>
<rect id="x317" x="1097" y="1235" class="st3" width="40" height="65"/>
<rect id="x318" x="1137" y="1340" class="st3" width="115" height="65"/>
<rect id="x319" x="1137" y="1235" class="st3" width="115" height="65"/>
<rect id="x320" x="1252" y="1340" class="st3" width="115" height="65"/>
<rect id="x321" x="1367" y="1285" class="st2" width="100" height="120"/>
<polyline id="XMLID_3_" class="st0" points="1467,1285 1467,1235 1367,1235 1367,1180 1337,1180 1337,1165 1307,1165 1307,1180 
	1252,1180 1252,1235 "/>
<rect id="x314" x="912" y="1235" class="st3" width="115" height="65"/>
<line id="XMLID_2_" class="st4" x1="1027" y1="1235" x2="1097" y2="1235"/>
<polyline id="XMLID_5_" class="st0" points="877,1235 797,1235 797,1279 797,1235 797,1175 757,1175 757,1165 "/>
<rect id="x304" x="307" y="1235" class="st3" width="40" height="65"/>
<rect id="x305" x="347" y="1235" class="st3" width="115" height="65"/>
<line id="XMLID_7_" class="st4" x1="462" y1="1235" x2="532" y2="1235"/>
<rect id="x308" x="532" y="1235" class="st3" width="40" height="65"/>
<rect id="x309" x="572" y="1235" class="st3" width="110" height="65"/>
<polyline id="XMLID_8_" class="st0" points="682,1235 682,1175 727,1175 727,1165 "/>
<rect id="x323" x="662" y="1049.7" class="st1" width="65" height="115"/>
<rect id="x322" x="757" y="1049.7" class="st3" width="65" height="115"/>
<rect id="x324" x="757" y="985" class="st3" width="65" height="65"/>
<rect id="x325" x="756.8" y="870.3" class="st1" width="90" height="115"/>
<rect id="x327" x="756.8" y="805.7" class="st1" width="65" height="65"/>
<rect id="x328" x="756.8" y="740.5" class="st1" width="65" height="65"/>
<rect id="XMLID_1_" x="727" y="455.6" class="st5" width="29.8" height="285"/>
<line id="XMLID_10_" class="st4" x1="662" y1="1049.7" x2="662" y2="985"/>
<rect id="x326" x="662" y="870.3" class="st1" width="65" height="115"/>
<polyline id="XMLID_11_" class="st4" points="662,870.3 662,805.5 727,805.5 "/>
<polyline id="XMLID_12_" class="st4" points="727,740.6 662,740.5 662,805.5 "/>
<polyline id="XMLID_13_" class="st4" points="832,295.6 672,295.6 672,455.6 832,455.6 "/>
<rect id="x139" x="831.5" y="295.6" class="st4" width="280" height="65"/>
<rect id="x88" x="831.5" y="390.6" class="st4" width="280" height="65"/>
<line id="XMLID_16_" class="st4" x1="831.5" y1="360.6" x2="831.5" y2="370.5"/>
<rect id="XMLID_14_" x="1111.8" y="390.6" class="st4" width="70" height="65"/>
<polyline id="XMLID_15_" class="st4" points="1111.5,295.6 1177,295.6 1177,360.6 1202,360.6 1202,295.6 "/>
<polyline id="XMLID_18_" class="st4" points="1181.8,390.6 1202,390.6 1202,455.6 1181.8,455.6 "/>
<path id="xკაფეტერია" class="cafeteria" d="M1202,470.7h420V406h10c0-230,0-230,0-230h20v-70h-85h85V76h-450V470.7z"/>
</svg>
