<?xml version="1.0" encoding="utf-8"?>
<!-- Generator: Adobe Illustrator 19.0.0, SVG Export Plug-In . SVG Version: 6.00 Build 0)  -->
<svg version="1.1" id="Layer_1" xmlns="http://www.w3.org/2000/svg"  x="0px" y="0px"
	 viewBox="50 -310 1800 1500" style="enable-background:new 50 -310 1800 1500;" xml:space="preserve">
<style type="text/css">
	.room{fill:#F4CB42;stroke:#000000;stroke-width:2;stroke-miterlimit:10;}
	.st2{fill:none;stroke:#000000;stroke-miterlimit:10;}
	.st0{fill:#FFFFFF;stroke:#000000;stroke-miterlimit:10;}
	.st6{font-family:'Sylfaen';}
	.st7{font-size:24px;}
</style>
<path id="x200" class="room" d="M58.7,1145h180v-65.3H212c-2.3-0.1-7.8-0.6-8.6-3.3c0-0.1,0-0.2-0.1-0.3c0-1.9,0-3.9,0-5.8v-110H58.7
	V1145L58.7,1145z"/>
<polygon class="st2" points="58.7,1145 1578.7,1144.4 1578.7,959.7 1478.7,959.7 1478.7,904.7 1443.7,904.7 1443.7,895.3 
	1413.7,895.3 1413.7,906 1363.7,906 1363.7,959.7 878.4,959.7 878.4,1001.8 878.4,908 839.1,908 839.1,889.6 904.1,889.6 
	904.1,704.6 929.1,704.6 929.1,589.3 904.1,589.3 904.1,449.3 839.1,449.3 839.1,114 1363.7,114 1629,114 1629,159.7 1699,159.7 
	1699,-140.3 1714,-140.3 1714,-250.3 1274,-250.3 1274,79.7 1205.5,79.7 1245.9,79.7 1245.9,-10.5 904.1,-10.5 743.4,-10.5 
	743.4,115 808.4,115 808.4,447.4 743.4,447.4 743.4,889.6 808.4,889.6 808.4,909 763.4,909 763.4,960.3 383.4,960.3 58.7,960.3 "/>
<path id="C_PathE__1_" class="st2" d="M236.4,1145"/>
<rect id="x204" x="383.4" y="960.3" class="room" width="155" height="65"/>
<rect id="x203" x="383.4" y="1080" class="room" width="155" height="65"/>
<rect id="x201" x="238.7" y="1079.7" class="room" width="75" height="65"/>
<rect id="x202" x="313.7" y="1079.7" class="room" width="69.7" height="65"/>
<rect id="x205" x="538.4" y="1080" class="room" width="70" height="65"/>
<rect id="x207" x="608.4" y="960.3" class="room" width="155" height="65"/>
<rect id="x206" x="608.4" y="1080" class="room" width="155" height="65"/>
<rect id="x208" x="763.4" y="1080" class="room" width="115" height="65"/>
<rect id="x209" x="948.4" y="1079.6" class="room" width="40" height="65"/>
<rect id="x218" x="1478.7" y="1019.4" class="room" width="100" height="125"/>
<rect id="x217" x="1363.7" y="1079.5" class="room" width="115" height="65.1"/>
<rect id="x210" x="948.4" y="960.2" class="room" width="40" height="65"/>
<rect id="x212" x="988.4" y="960.2" class="room" width="115" height="65"/>
<rect id="x211" x="988.4" y="1079.6" class="room" width="115" height="65"/>
<rect id="x213" x="1103.4" y="1079.6" class="room" width="75" height="65"/>
<rect id="x214" x="1178.4" y="1079.6" class="room" width="185.3" height="65"/>
<rect id="x215" x="1178.4" y="959.7" class="room" width="40" height="65"/>
<rect id="x216" x="1218.4" y="959.7" class="room" width="145.3" height="65"/>
<rect id="x220" x="743.4" y="774.6" class="room" width="65" height="115"/>
<rect id="x219" x="839.1" y="774.6" class="room" width="65" height="115"/>
<rect id="x221" x="839.1" y="704.6" class="room" width="65" height="70"/>
<rect id="x222" x="839.1" y="589.3" class="room" width="90" height="115"/>
<rect id="x224" x="839.1" y="519" class="room" width="65" height="70"/>
<rect id="x225" x="839.1" y="449.3" class="room" width="65" height="70"/>
<line class="st2" x1="743.4" y1="519.3" x2="808.4" y2="519.3"/>
<rect id="x223" x="743.4" y="589" class="room" width="65" height="115"/>
<path class="st0" d="M2072.4,570.3"/>
<line class="st2" x1="743.4" y1="704" x2="743.4" y2="774.6"/>
<rect id="xB1" x="904.1" y="-10.5" class="st2" width="140" height="60"/>
<rect id="xტ1_x2C_4" x="1044.1" y="-10.5" class="st2" width="140" height="60"/>
<polygon id="xკულინარიის_x5F_აკადემია" class="st2" points="1274,79.7 1363.7,79.7 1363.7,114 
	1629,114 1629,159.7 1699,159.7 1699,89.7 1629,89.7 1699,89.7 1699,-140.3 1714,-140.3 1714,-250.3 1274,-250.3 "/>
<path class="st2" d="M904.1,449.3"/>
<text transform="matrix(1 0 0 1 104 1077)" class="st6 st7">200</text>
<text transform="matrix(1 0 0 1 259.2 1119.1)" class="st6 st7">201</text>
<text transform="matrix(1 0 0 1 324.2001 1116.6)" class="st6 st7">202</text>
<text transform="matrix(1 0 0 1 437.9 1117.1)" class="st6 st7">203</text>
<text transform="matrix(1 0 0 1 440.9 998)" class="st6 st7">204</text>
<text transform="matrix(1 0 0 1 552 1114)" class="st6 st7">205</text>
<text transform="matrix(1 0 0 1 661.9 1116.1)" class="st6 st7">206</text>
<text transform="matrix(1 0 0 1 658.9 998.2)" class="st6 st7">207</text>
<text transform="matrix(1 0 0 1 800.9 1113.5)" class="st6 st7">208</text>
<text transform="matrix(2.244830e-010 -1 1 2.244830e-010 975.8965 1126.6016)" class="st6 st7">209</text>
<text transform="matrix(2.244830e-010 -1 1 2.244830e-010 976.8965 1012.3027)" class="st6 st7">210</text>
<text transform="matrix(1 0 0 1 1022.9 1001.8)" class="st6 st7">212</text>
<text transform="matrix(1 0 0 1 1024.9 1116.1)" class="st6 st7">211</text>
<text transform="matrix(1 0 0 1 1119.2334 1113.5833)" class="st6 st7">213</text>
<text transform="matrix(1 0 0 1 1245.9166 1111.5333)" class="st6 st7">214</text>
<text transform="matrix(4.489659e-011 -1 1 4.489659e-011 1205.498 1008.8691)" class="st6 st7">215</text>
<text transform="matrix(1 0 0 1 1401.1996 1118.0005)" class="st6 st7">217</text>
<text transform="matrix(1 0 0 1 1261 1000.6664)" class="st6 st7">216</text>
<text transform="matrix(1 0 0 1 1499.667 1088.667)" class="st6 st7">218</text>
<text transform="matrix(1 0 0 1 757.6665 832)" class="st6 st7">220</text>
<text transform="matrix(1 0 0 1 853 830)" class="st6 st7">219</text>
<text transform="matrix(1 0 0 1 853.6665 740.667)" class="st6 st7">221</text>
<text transform="matrix(1 0 0 1 855.7332 649.333)" class="st6 st7">222</text>
<text transform="matrix(1 0 0 1 754.5668 648)" class="st6 st7">223</text>
<text transform="matrix(1 0 0 1 854.2001 564.6667)" class="st6 st7">224</text>
<text transform="matrix(1 0 0 1 852.9333 489.6333)" class="st6 st7">225</text>
<text transform="matrix(1 0 0 1 962.7664 29.3333)" class="st6 st7">B1</text>
<text transform="matrix(1 0 0 1 1091 25.3335)" class="st6 st7">ტ1,4</text>
<text transform="matrix(1 0 0 1 1369.6666 -60.6667)" class="st6 st7">კულინარიის აკადემია</text>
</svg>
