<?xml version="1.0" encoding="utf-8"?>
<!-- Generator: Adobe Illustrator 19.0.0, SVG Export Plug-In . SVG Version: 6.00 Build 0)  -->
<svg version="1.1" id="Layer_1" xmlns="http://www.w3.org/2000/svg"  x="0px" y="0px"
	 viewBox="0 0 3100 988" style="enable-background:new 0 0 3100 988;" xml:space="preserve">
<style type="text/css">
	.st0{fill:#FFFFFF;stroke:#000000;stroke-miterlimit:10;}
</style>
<polyline class="st0" points="973,661 1043,661 1043,698.3 "/>
<polyline class="st0" points="1043,661 1198,661 1198,740 "/>
<polyline class="st0" points="1198,781 1198,861 1043,861 1043,821 "/>
<polyline class="st0" points="1043,861 973,861 973,821 "/>
<polyline class="st0" points="598,821 598,861 973,861 "/>
<polyline class="st0" points="451.5,698.3 598,698.3 598,728.5 "/>
<polyline class="st0" points="598,861 598,950.5 451.5,950.5 "/>
<polyline class="st0" points="34,698.3 34.1,661 860.6,661 860.6,605 971.6,605 971.6,661 971.6,698.3 "/>
<polygon id="stud2" class="st0" points="34,698.3 34,862 59,862 59,863.1 34,863.1 34,950.5 91.5,950.5 91.5,698.3 "/>
<path class="st0" d="M34,698.3"/>
<polygon id="conf" class="st0" points="91.5,950.5 451.5,950.5 451.5,698.3 152.5,698.3 152.4,678.8 113.1,678.8 112.9,698.3 
	91.5,698.3 " style="fill:yellow"/>
<rect x="33.8" y="406.1" class="st0" width="215" height="255" style="fill:red"/>
</svg>
