<?xml version="1.0" encoding="utf-8"?>
<!-- Generator: Adobe Illustrator 19.0.0, SVG Export Plug-In . SVG Version: 6.00 Build 0)  -->
<svg version="1.1" id="Layer_1" xmlns="http://www.w3.org/2000/svg"  x="0px" y="0px"
	 viewBox="0 0 1700 880" style="enable-background:new 0 0 1700 880;" xml:space="preserve">
<style type="text/css">
	.st0{fill:#FFFFFF;stroke:#000000;stroke-miterlimit:10;}
</style>
<rect id="x400" x="71.6" y="612.8" class="st0" width="260" height="190"/>
<rect id="x401" x="331.8" y="737.8" class="st0" width="70" height="65"/>
<rect id="x402-1" x="401.8" y="737.8" class="st0" width="75" height="65"/>
<rect id="x402-2" x="476.8" y="737.8" class="st0" width="75" height="65"/>
<rect id="x403-1" x="401.8" y="612.8" class="st0" width="110" height="65"/>
<rect id="x403-2" x="511.8" y="612.8" class="st0" width="40" height="65"/>
<rect id="x404" x="551.8" y="737.8" class="st0" width="35" height="65"/>
<rect id="x405" x="586.8" y="737.8" class="st0" width="35" height="65"/>
<rect id="x406" x="621.8" y="737.8" class="st0" width="160" height="65"/>
<rect id="x407-1" x="621.8" y="612.8" class="st0" width="80" height="65"/>
<rect id="x407-2" x="701.8" y="612.8" class="st0" width="80" height="65"/>
<rect id="x408" x="781.8" y="737.8" class="st0" width="115" height="65"/>
<rect id="xtoilet" x="896.8" y="737.8" class="st0" width="80" height="65"/>
<rect id="x409" x="976.8" y="737.8" class="st0" width="155" height="65"/>
<rect id="x410" x="976.8" y="612.8" class="st0" width="155" height="65"/>
<rect id="x411" x="1131.8" y="737.8" class="st0" width="75" height="65"/>
<rect id="x412-1" x="1206.8" y="737.8" class="st0" width="75" height="65"/>
<rect id="x412-2" x="1281.8" y="737.8" class="st0" width="75" height="65"/>
<rect id="x413-2" x="1206.8" y="612.8" class="st0" width="45" height="65"/>
<rect id="x413-1" x="1251.8" y="612.8" class="st0" width="105" height="65"/>
<rect id="x414" x="1356.8" y="737.8" class="st0" width="115" height="65"/>
<rect id="x415" x="1471.8" y="682.8" class="st0" width="100" height="120"/>
<polyline id="XMLID_2_" class="st0" points="1571.8,682.8 1571.8,612.8 1471.8,612.8 1471.8,557.7 1356.8,557.7 1356.8,612.8 "/>
<line id="XMLID_3_" class="st0" x1="1206.8" y1="612.8" x2="1131.8" y2="612.8"/>
<line id="XMLID_4_" class="st0" x1="551.8" y1="612.8" x2="621.8" y2="612.8"/>
<line id="XMLID_5_" class="st0" x1="401.8" y1="612.8" x2="331.6" y2="612.8"/>
<polyline id="XMLID_6_" class="st0" points="976.8,612.8 896.8,612.8 896.8,658 896.8,558 856.8,558 856.8,543 "/>
<polyline id="XMLID_1_" class="st0" points="781.8,612.8 781.8,558 832,558 832,543 "/>
<rect id="x416" x="856.8" y="428" class="st0" width="65" height="115"/>
<rect id="x417" x="767" y="428" class="st0" width="65" height="115"/>
<rect id="x418" x="856.8" y="393.5" class="st0" width="65" height="35"/>
<rect id="x419" x="856.8" y="360" class="st0" width="65" height="35"/>
<rect id="x420" x="856.8" y="250" class="st0" width="90" height="110"/>
<rect id="x421" x="767" y="250" class="st0" width="65" height="110"/>
<line id="XMLID_9_" class="st0" x1="767" y1="359" x2="767" y2="428"/>
<rect id="x422" x="856.8" y="185.5" class="st0" width="65" height="65"/>
<rect id="x423" x="856.8" y="120.5" class="st0" width="65" height="65"/>
<polyline id="XMLID_7_" class="st0" points="856.8,120.5 767,120.5 767,250 "/>
<polyline id="XMLID_8_" class="st0" points="767,185.3 832,185.3 832,135 "/>
</svg>
