<?xml version="1.0" encoding="utf-8"?>
<!-- Generator: Adobe Illustrator 19.0.0, SVG Export Plug-In . SVG Version: 6.00 Build 0)  -->
<svg version="1.1" id="Layer_1" xmlns="http://www.w3.org/2000/svg"  x="0px" y="0px"
	 viewBox="0 -360 1700 1600" style="enable-background:new 0 -360 1700 1600;" xml:space="preserve">
<style type="text/css">
	.st0{fill:#FFFFFF;stroke:#000000;stroke-miterlimit:10;}
	.st1{fill:#F4CB42;stroke:#000000;stroke-width:2;stroke-miterlimit:10;}
	.st2{fill:none;stroke:#000000;stroke-miterlimit:10;}
	.st3{fill:#58595B;stroke:#000000;stroke-miterlimit:10;}
	.st4{fill:#4286F4;stroke:#000000;stroke-miterlimit:10;}
	.st5{font-family:'Sylfaen';}
	.st6{font-size:24px;}
</style>
<polyline class="st0" points="1364,940 1364,890 1264,890 1264,835 1234,835 1234,820 1204,820 1204,835 1149,835 1149,835 
	1204,835 1204,820 1234,820 1234,835 1264,835 1264,890 1364,890 1364,1060 74,1060 74,995 34,995 34,830 144,830 144,935 144,890 
	204,890 359,890 429,890 579,890 579,830 624,830 624,820 624,819.7 559,819.7 559,395.5 718.8,395.5 718.8,525.7 743.8,525.3 
	743.8,640.3 719,640 719,819.7 654,819.7 654,830 694,830 694,890 1149,890 1149,835 "/>
<rect id="x301" x="74" y="995" class="st1" width="65" height="65"/>
<rect id="x302" x="139" y="995" class="st1" width="65" height="65"/>
<rect id="x303" x="204" y="995" class="st1" width="155" height="65"/>
<rect id="x306" x="359" y="995" class="st1" width="70" height="65"/>
<rect id="x307-1" x="429" y="995" class="st1" width="75" height="65"/>
<rect id="x307-2" x="504" y="995" class="st1" width="75" height="65"/>
<rect id="x310" x="579" y="995" class="st1" width="115" height="65"/>
<line id="XMLID_4_" class="st2" x1="694" y1="1060" x2="774" y2="1060"/>
<rect id="x311" x="774" y="995" class="st1" width="35" height="65"/>
<rect id="x312" x="774" y="890" class="st1" width="35" height="65"/>
<rect id="x313" x="809" y="995" class="st1" width="115" height="65"/>
<rect id="x315" x="924" y="995" class="st1" width="70" height="65"/>
<rect id="x316" x="994" y="995" class="st1" width="40" height="65"/>
<rect id="x317" x="994" y="890" class="st1" width="40" height="65"/>
<rect id="x318" x="1034" y="995" class="st1" width="115" height="65"/>
<rect id="x319" x="1034" y="890" class="st1" width="115" height="65"/>
<rect id="x320" x="1149" y="995" class="st1" width="115" height="65"/>
<rect id="x321" x="1264" y="940" class="st1" width="100" height="120"/>
<rect id="x314" x="809" y="890" class="st1" width="115" height="65"/>
<rect id="x304" x="204" y="890" class="st1" width="40" height="65"/>
<rect id="x305" x="244" y="890" class="st1" width="115" height="65"/>
<rect id="x308" x="429" y="890" class="st1" width="40" height="65"/>
<rect id="x309" x="469" y="890" class="st1" width="110" height="65"/>
<rect id="x323" x="559" y="704.7" class="st1" width="65" height="115"/>
<rect id="x322" x="654" y="704.7" class="st1" width="65" height="115"/>
<rect id="x324" x="654" y="640" class="st1" width="65" height="65"/>
<rect id="x325" x="653.8" y="525.3" class="st1" width="90" height="115"/>
<rect id="x327" x="653.8" y="460.7" class="st1" width="65" height="65"/>
<rect id="x328" x="653.8" y="395.5" class="st1" width="65" height="65"/>
<rect id="XMLID_1_" x="624" y="110.6" class="st3" width="29.8" height="285"/>
<line id="XMLID_10_" class="st2" x1="559" y1="704.7" x2="559" y2="640"/>
<rect id="x326" x="559" y="525.3" class="st1" width="65" height="115"/>
<polyline id="XMLID_11_" class="st2" points="559,525.3 559,460.5 624,460.5 "/>
<polyline id="XMLID_12_" class="st2" points="624,395.6 559,395.5 559,460.5 "/>
<polyline id="XMLID_13_" class="st2" points="729,-49.4 569,-49.4 569,110.6 729,110.6 "/>
<rect id="x139" x="728.5" y="-49.4" class="st1" width="280" height="65"/>
<rect id="x88" x="728.5" y="45.6" class="st1" width="280" height="65"/>
<line id="XMLID_16_" class="st2" x1="728.5" y1="15.6" x2="728.5" y2="25.5"/>
<rect id="XMLID_14_" x="1008.8" y="45.6" class="st2" width="70" height="65"/>
<polyline id="XMLID_15_" class="st2" points="1008.5,-49.4 1074,-49.4 1074,15.6 1099,15.6 1099,-49.4 "/>
<polyline id="XMLID_18_" class="st2" points="1078.8,45.6 1099,45.6 1099,110.6 1078.8,110.6 "/>
<path id="xკაფეტერია" class="st4" d="M1099,125.7h420V61h10c0-230,0-230,0-230h20v-70h-85h85v-30h-450V125.7z"/>
<text transform="matrix(1 0 0 1 87.5 1035)" class="st5 st6">301</text>
<text transform="matrix(1 0 0 1 149.5 1034.5)" class="st5 st6">302</text>
<text transform="matrix(1 0 0 1 259.5 1034.5)" class="st5 st6">303</text>
<text transform="matrix(4.489659e-011 -1 1 4.489659e-011 233.498 941.502)" class="st5 st6">304</text>
<text transform="matrix(1 0 0 1 262 927)" class="st5 st6">305</text>
<text transform="matrix(1 0 0 1 379 1032.5)" class="st5 st6">306</text>
<text transform="matrix(4.489659e-011 -1 1 4.489659e-011 454.498 940.002)" class="st5 st6">308</text>
<text transform="matrix(1 0 0 1 438.5 1031)" class="st5 st6">307-1</text>
<text transform="matrix(1 0 0 1 509 1030.5)" class="st5 st6">307-2</text>
<text transform="matrix(1 0 0 1 493 929)" class="st5 st6">309</text>
<text transform="matrix(1 0 0 1 596 1029)" class="st5 st6">310</text>
<text transform="matrix(4.489659e-011 -1 1 4.489659e-011 800.998 936.002)" class="st5 st6">312</text>
<text transform="matrix(4.489659e-011 -1 1 4.489659e-011 798.498 1044.002)" class="st5 st6">311</text>
<text transform="matrix(1 0 0 1 845 930)" class="st5 st6">314</text>
<text transform="matrix(1 0 0 1 842 1027)" class="st5 st6">313</text>
<text transform="matrix(1 0 0 1 940 1029)" class="st5 st6">315</text>
<text transform="matrix(4.489659e-011 -1 1 4.489659e-011 1020.498 943.502)" class="st5 st6">317</text>
<text transform="matrix(4.489659e-011 -1 1 4.489659e-011 1024.9961 1049.002)" class="st5 st6">316</text>
<text transform="matrix(1 0 0 1 1071 1028)" class="st5 st6">318</text>
<text transform="matrix(1 0 0 1 1066.5 926)" class="st5 st6">319</text>
<text transform="matrix(1 0 0 1 1182.5 1036.5)" class="st5 st6">320</text>
<text transform="matrix(1 0 0 1 1299 997)" class="st5 st6">321</text>
<text transform="matrix(1 0 0 1 576 766)" class="st5 st6">323</text>
<text transform="matrix(1 0 0 1 677 768.2)" class="st5 st6">322</text>
<text transform="matrix(1 0 0 1 676.8 584)" class="st5 st6">325</text>
<text transform="matrix(1 0 0 1 674 681.35)" class="st5 st6">324</text>
<text transform="matrix(1 0 0 1 578.5 593)" class="st5 st6">326</text>
<text transform="matrix(1 0 0 1 677 491)" class="st5 st6">327</text>
<text transform="matrix(1 0 0 1 671.8 433)" class="st5 st6">328</text>
<text transform="matrix(1 0 0 1 835 -20)" class="st5 st6">139</text>
<text transform="matrix(1 0 0 1 830 90)" class="st5 st6">88</text>
<text transform="matrix(1 0 0 1 1226 -56)" class="st5 st6">კაფეტერია</text>
<path class="st2" d="M1149,835"/>
<line class="st0" x1="694" y1="890" x2="694" y2="930"/>
</svg>
