<?xml version="1.0" encoding="utf-8"?>
<!-- Generator: Adobe Illustrator 19.0.0, SVG Export Plug-In . SVG Version: 6.00 Build 0)  -->
<svg xmlns:xlink="http://www.w3.org/1999/xhtml" version="1.1" id="Layer_1"  xmlns="http://www.w3.org/2000/svg" x="0px"
	 y="0px" viewBox="620 291 3040 920" style="enable-background:new 620 291 3040 920;" xml:space="preserve">
<style type="text/css">
	.st0{fill:#FFFFFF;stroke:#000000;stroke-miterlimit:10;}
	.st1{fill:#BEC0C2;stroke:#000000;stroke-miterlimit:10;}
	.st2{fill:none;stroke:#000000;stroke-miterlimit:10;}
	.st3{font-family:'Consolas';}
	.st4{font-size:18px;}
	.st5{font-family:'Sylfaen';}
	.st6{font-size:18.5893px;}
</style>
<rect id="xST1" x="1341.8" y="880" class="st0" width="60" height="235"/>
<rect id="XMLID_3_" x="1342.8" y="844.8" class="st0" width="70" height="35"/>
<polygon id="XMLID_4_" class="st1" points="1412.8,862.3 1478,862.3 1478,879.8 1778.3,880 1778.3,1115 1403,1115 1403,880 
	1412.8,879.8 "/>
<line id="XMLID_6_" class="st2" x1="1412.8" y1="844.8" x2="1628.3" y2="844.8"/>
<polygon class="st0" points="1571.8,844.8 1571.8,594.8 1371.8,594.8 1371.8,469.8 1786.8,469.8 1786.8,789.8 1741.8,789.8 
	1741.8,844.8 "/>
<path id="XMLID_8_" class="st0" d="M2193,791h109v54.1h70V1011h-438v-42l1,146h-156.7V880c51.9,0.2,103.8,0.3,155.7,0.5v41"/>
<path id="XMLID_10_" class="st0" d="M1956.6,845.1c202.7,96.6,276.5,101.2,297,75c15.3-19.5,9-66.5-13.5-76.5
	c-17.1-7.6-44.1,5.9-66,33"/>
<polyline id="XMLID_9_" class="st0" points="2302,791 2262,791 2262,776 "/>
<rect id="XMLID_12_" x="2165" y="311" class="st0" width="170" height="465"/>
<rect id="x101ა" x="2165.5" y="660" class="st0" width="60" height="115"/>
<rect id="x102ა" x="2274.5" y="660" class="st0" width="60" height="115"/>
<rect id="x103ა" x="2274.5" y="595.3" class="st0" width="60" height="65"/>
<rect id="x105ა" x="2274.3" y="479.3" class="st0" width="60" height="115"/>
<rect id="x104ა" x="2164.5" y="480" class="st0" width="60" height="115"/>
<rect id="x106ა" x="2274.5" y="408.5" class="st0" width="60" height="70"/>
<rect id="x107ა" x="2274.5" y="311" class="st0" width="60" height="97.5"/>
<rect id="x108ა" x="2165" y="359.8" class="st0" width="57.5" height="48.8"/>
<polyline id="xC_pathxE_" class="st2" points="2762.6,845.1 2372,845.1 2372,1011 3448.1,1011 "/>
<rect id="x101" x="2371.6" y="951.1" class="st0" width="150" height="60"/>
<rect id="x102" x="2372" y="845.1" class="st0" width="150" height="60"/>
<rect id="x105" x="2584.7" y="845.1" class="st0" width="177" height="60"/>
<polyline class="st0" points="2761.7,845.1 2761.7,791 2802,791 2802,775.7 2737,775.7 2737,311 2897.7,311 2897.7,775.7 
	2832.7,775.7 2832.7,791 2872.7,791 2873,845.1 2873.3,885 "/>
<rect id="x114" x="2833" y="661" class="st0" width="65" height="115"/>
<rect id="x115" x="2737" y="660" class="st0" width="65" height="115"/>
<polygon id="x116" class="st0" points="2833,591 2898,590 2898,660 2833,661 "/>
<rect id="x117" x="2833" y="475.5" class="st0" width="65" height="115"/>
<rect id="x119" x="2833" y="408.6" class="st0" width="65" height="66.9"/>
<rect id="x120" x="2833" y="311" class="st0" width="65" height="97.5"/>
<line class="st2" x1="2802" y1="311" x2="2802" y2="331.7"/>
<polyline class="st0" points="2737,311 2737,386.3 2802,386.3 2802,357 "/>
<rect id="x118" x="2737" y="475.5" class="st0" width="65" height="115"/>
<line class="st2" x1="3332.6" y1="845.1" x2="2873" y2="845.1"/>
<rect id="x108" x="2938.5" y="845.1" class="st0" width="150" height="50"/>
<rect id="x111" x="3153" y="845.1" class="st0" width="150" height="50"/>
<rect id="x103" x="2521.6" y="951.1" class="st0" width="63.1" height="60"/>
<rect id="x104" x="2581.8" y="951.1" class="st0" width="179.8" height="60"/>
<rect id="x106" x="2761.7" y="951.1" class="st0" width="111.3" height="60"/>
<rect id="x107" x="2938.5" y="951.1" class="st0" width="150" height="60"/>
<rect id="x109" x="3088.5" y="951.1" class="st0" width="65.5" height="60"/>
<rect id="x110" x="3153.3" y="951.1" class="st0" width="150" height="60"/>
<rect id="x112" x="3302.7" y="951.1" class="st0" width="116.1" height="60"/>
	<a xlink:href="google.com">
<rect id="x113" x="3418.8" y="901.8" class="st0" width="90" height="110"/></a>
<polyline class="st0" points="3302.7,845.2 3302.7,775.1 3342.7,775.1 3378.2,775.1 3418.8,775.1 3418.8,845.2 3508.8,845.2 
	3508.8,901.2 "/>
<text transform="matrix(1 0 0 1 1356.6 990.65)" class="st3 st4">ST1</text>
<text transform="matrix(1 0 0 1 1620 663.95)" class="st5 st4">ბიბლიოთეკა</text>
<polyline class="st0" points="1741.8,844.8 2193,844.8 2193,791 2238,791 2238,776 "/>
<text transform="matrix(1 0 0 1 2176.3335 721.1667)" class="st5 st4">101ა</text>
<text transform="matrix(1 0 0 1 2284.3003 724.3335)" class="st5 st4">102ა</text>
<text transform="matrix(0.9683 0 0 1 2285.8337 632.3865)" class="st5 st6">103ა</text>
<text transform="matrix(1 0 0 1 2287.3337 551.333)" class="st5 st4">105ა</text>
<text transform="matrix(1 0 0 1 2176.8337 547.0002)" class="st5 st4">104ა</text>
<text transform="matrix(1 0 0 1 2285.333 450.6665)" class="st5 st4">106ა</text>
<text transform="matrix(1 0 0 1 2284.667 370)" class="st5 st4">107ა</text>
<text transform="matrix(1 0 0 1 2428.9998 977.334)" class="st5 st4">101</text>
<text transform="matrix(1 0 0 1 2430.6003 879.334)" class="st5 st4">102</text>
<text transform="matrix(1 0 0 1 2538.6504 981.767)" class="st5 st4">103</text>
<text transform="matrix(1 0 0 1 2656.8828 981.7676)" class="st5 st4">104</text>
<text transform="matrix(1 0 0 1 2653.7 879.2999)" class="st5 st4">105</text>
<text transform="matrix(1 0 0 1 2803.333 983.7673)" class="st5 st4">106</text>
<text transform="matrix(1 0 0 1 2994.1667 985.1003)" class="st5 st4">107</text>
<text transform="matrix(1 0 0 1 2992 876)" class="st5 st4">108</text>
<text transform="matrix(1 0 0 1 3106.6663 983.767)" class="st5 st4">109</text>
<text transform="matrix(1 0 0 1 3210.3337 981.1006)" class="st5 st4">110</text>
<text transform="matrix(1 0 0 1 3211.6663 872.866)" class="st5 st4">111</text>
<text transform="matrix(1 0 0 1 3344.717 985.101)" class="st5 st4">112</text>
<text transform="matrix(1 0 0 1 3448.4331 944.6663)" class="st5 st4">113</text>
<text transform="matrix(1 0 0 1 2752.1667 727.0002)" class="st5 st4">115</text>
<text transform="matrix(1 0 0 1 2851 727.3335)" class="st5 st4">114</text>
<text transform="matrix(1 0 0 1 2851.5002 635.7197)" class="st5 st4">116</text>
<text transform="matrix(1 0 0 1 2849.9998 542.9998)" class="st5 st4">117</text>
<text transform="matrix(1 0 0 1 2752.1663 543)" class="st5 st4">118</text>
<text transform="matrix(1 0 0 1 2850.833 445.333)" class="st5 st4">119</text>
<text transform="matrix(1 0 0 1 2851.5 368.6665)" class="st5 st4">120</text>
</svg>
