<?xml version="1.0" encoding="utf-8"?>
<!-- Generator: Adobe Illustrator 19.0.0, SVG Export Plug-In . SVG Version: 6.00 Build 0)  -->
<svg version="1.1" id="Layer_1" xmlns="http://www.w3.org/2000/svg"  x="0px" y="0px"
	 viewBox="670 -20 3040 920" style="enable-background:new 670 -20 3040 920;" xml:space="preserve">
<style type="text/css">
	.st0{fill:#FFFFFF;stroke:#000000;stroke-miterlimit:10;}
	.st1{fill:none;stroke:#000000;stroke-miterlimit:10;}
</style>
<rect id="ST1" x="723" y="589" class="st0" width="60" height="235"/>
<rect id="XMLID_3_" x="722.8" y="553.8" class="st0" width="70" height="35"/>
<polygon id="XMLID_4_" class="st0" points="792.8,571.3 858,571.3 858,588.8 1158.3,589 1158.3,824 783,824 783,589 792.8,588.8 "/>
<line id="XMLID_6_" class="st1" x1="792.8" y1="553.8" x2="1008.3" y2="553.8"/>
<path id="xბიბლიოთეკა" class="st0" d="M915.3,553.7c-0.5-83.2-0.9-166.3-1.4-249.5c-63.9,0-127.7-0.1-191.6-0.1
	c0.3-40,0.5-80,0.8-120c145.4-0.3,290.8-0.5,436.2-0.8c0,83.8,0,167.7,0,251.5c-13.1,0-26.2,0-39.2,0c0.6,39.7,1.1,79.5,1.7,119.2
	c-34.5-0.2-68.9-0.3-103.4-0.4C984.1,553.6,949.7,553.6,915.3,553.7z"/>
<path id="XMLID_8_" class="st0" d="M1121.5,554.1H1573V500h109v54.1h70V720h-438v-42l1,146h-156.7V589c51.9,0.2,103.8,0.3,155.7,0.5
	v41"/>
<path id="XMLID_10_" class="st0" d="M1336.6,554.1c202.7,96.6,276.5,101.2,297,75c15.3-19.5,9-66.5-13.5-76.5
	c-17.1-7.6-44.1,5.9-66,33"/>
<polyline id="XMLID_9_" class="st0" points="1682,500 1642,500 1642,485 "/>
<polyline id="XMLID_11" class="st0" points="1573,500 1618,500 1618,485 "/>
<rect id="XMLID_12_" x="1545" y="20" class="st0" width="170" height="465"/>
<rect id="x101ა" x="1545.5" y="369" class="st0" width="60" height="115"/>
<rect id="x102ა" x="1654.5" y="369" class="st0" width="60" height="115"/>
<rect id="x103ა" x="1654.5" y="304.3" class="st0" width="60" height="65"/>
<rect id="x105ა" x="1654.3" y="188.3" class="st0" width="60" height="115"/>
<rect id="x104ა" x="1544.5" y="189" class="st0" width="60" height="115"/>
<rect id="x106ა" x="1654.5" y="117.5" class="st0" width="60" height="70"/>
<rect id="x107ა" x="1654.5" y="20" class="st0" width="60" height="97.5"/>
<rect id="x108ა" x="1545" y="68.8" class="st0" width="57.5" height="48.8"/>
<polyline id="xC_pathxE_" class="st1" points="2142.6,554.1 1752,554.1 1752,720 2828.1,720 "/>
<rect id="x101" x="1751.6" y="660.1" class="st0" width="150" height="60"/>
<rect id="x102" x="1752" y="554.1" class="st0" width="150" height="60"/>
<rect id="x105" x="1991.7" y="554.1" class="st0" width="150" height="60"/>
<polyline class="st0" points="2141.7,554.1 2141.7,500 2182,500 2182,484.7 2117,484.7 2117,20 2277.7,20 2277.7,484.7 
	2212.7,484.7 2212.7,500 2252.7,500 2253,554.1 2253.3,594 "/>
<rect id="x114" x="2213" y="370" class="st0" width="65" height="115"/>
<rect id="x115" x="2117" y="369" class="st0" width="65" height="115"/>
<polygon id="x116" class="st0" points="2213,300 2278,299 2278,369 2213,370 "/>
<rect id="x117" x="2213" y="184.5" class="st0" width="65" height="115"/>
<rect id="x119" x="2213" y="117.6" class="st0" width="65" height="66.9"/>
<rect id="x120" x="2213" y="20" class="st0" width="65" height="97.5"/>
<line class="st1" x1="2182" y1="20" x2="2182" y2="40.7"/>
<polyline class="st0" points="2117,20 2117,95.3 2182,95.3 2182,66 "/>
<rect id="x118" x="2117" y="184.5" class="st0" width="65" height="115"/>
<line class="st1" x1="2712.6" y1="554.1" x2="2253" y2="554.1"/>
<rect id="x108" x="2318.5" y="554.1" class="st0" width="150" height="50"/>
<rect id="x111" x="2562" y="554.1" class="st0" width="150" height="50"/>
<rect id="x103" x="1901.6" y="660.1" class="st0" width="90.1" height="60"/>
<rect id="x104" x="1991.7" y="660.1" class="st0" width="150" height="60"/>
<rect id="x106" x="2141.7" y="660.1" class="st0" width="111.3" height="60"/>
<rect id="x107" x="2318.5" y="660.1" class="st0" width="150" height="60"/>
<rect id="x109" x="2468.5" y="660.1" class="st0" width="93.5" height="60"/>
<rect id="x110" x="2562" y="660.1" class="st0" width="150" height="60"/>
<rect id="x112" x="2712" y="660.1" class="st0" width="116.1" height="60"/>
<rect id="x113" x="2828.1" y="610.1" class="st0" width="90" height="110"/>
<polyline class="st0" points="2712,554.1 2712,484 2752,484 2787.5,484 2828.1,484 2828.1,554.1 2918.1,554.1 2918.1,610.1 "/>
</svg>
