<?xml version="1.0" encoding="utf-8"?>
<!-- Generator: Adobe Illustrator 19.0.0, SVG Export Plug-In . SVG Version: 6.00 Build 0)  -->
<svg version="1.1" id="Layer_1" xmlns="http://www.w3.org/2000/svg"  x="0px" y="0px"
	 viewBox="-49 -50 1700 1600" style="enable-background:new -49 -50 1700 1600;" xml:space="preserve">
<style type="text/css">
	.st0{fill:#FFFFFF;stroke:#000000;stroke-miterlimit:10;}
	.st1{fill:#EB42F4;stroke:#000000;stroke-width:2;stroke-miterlimit:10;}
	.st2{fill:#7AF441;stroke:#000000;stroke-width:2;stroke-miterlimit:10;}
	.st3{fill:#FFFF00;stroke:#000000;stroke-width:2;stroke-miterlimit:10;}
	.st4{fill:none;stroke:#000000;stroke-miterlimit:10;}
	.st5{fill:#58595B;stroke:#000000;stroke-miterlimit:10;}
	.st6{fill:#4286F4;stroke:#000000;stroke-miterlimit:10;}
	.st7{font-family:'Sylfaen';}
	.st8{font-size:24px;}
</style>
<polyline id="XMLID_6_" class="st0" points="128,1290 88,1290 88,1125 198,1125 198,1230 198,1185 258,1185 "/>
<rect id="x301" x="128" y="1290" class="st1" width="65" height="65"/>
<rect id="x302" x="193" y="1290" class="st1" width="65" height="65"/>
<rect id="x303" x="258" y="1290" class="st2" width="155" height="65"/>
<rect id="x306" x="413" y="1290" class="st3" width="70" height="65"/>
<rect id="x307-1" x="483" y="1290" class="st3" width="75" height="65"/>
<rect id="x307-2" x="558" y="1290" class="st3" width="75" height="65"/>
<rect id="x310" x="633" y="1290" class="st3" width="115" height="65"/>
<line id="XMLID_4_" class="st4" x1="748" y1="1355" x2="828" y2="1355"/>
<rect id="x311" x="828" y="1290" class="st3" width="35" height="65"/>
<rect id="x312" x="828" y="1185" class="st3" width="35" height="65"/>
<rect id="x313" x="863" y="1290" class="st3" width="115" height="65"/>
<rect id="x315" x="978" y="1290" class="st3" width="70" height="65"/>
<rect id="x316" x="1048" y="1290" class="st3" width="40" height="65"/>
<rect id="x317" x="1048" y="1185" class="st3" width="40" height="65"/>
<rect id="x318" x="1088" y="1290" class="st3" width="115" height="65"/>
<rect id="x319" x="1088" y="1185" class="st3" width="115" height="65"/>
<rect id="x320" x="1203" y="1290" class="st3" width="115" height="65"/>
<rect id="x321" x="1318" y="1235" class="st2" width="100" height="120"/>
<polyline id="XMLID_3_" class="st0" points="1418,1235 1418,1185 1318,1185 1318,1130 1288,1130 1288,1115 1258,1115 1258,1130 
	1203,1130 1203,1185 "/>
<rect id="x314" x="863" y="1185" class="st3" width="115" height="65"/>
<line id="XMLID_2_" class="st4" x1="978" y1="1185" x2="1048" y2="1185"/>
<polyline id="XMLID_5_" class="st0" points="828,1185 748,1185 748,1229 748,1185 748,1125 708,1125 708,1115 "/>
<rect id="x304" x="258" y="1185" class="st3" width="40" height="65"/>
<rect id="x305" x="298" y="1185" class="st3" width="115" height="65"/>
<line id="XMLID_7_" class="st4" x1="413" y1="1185" x2="483" y2="1185"/>
<rect id="x308" x="483" y="1185" class="st3" width="40" height="65"/>
<rect id="x309" x="523" y="1185" class="st3" width="110" height="65"/>
<polyline id="XMLID_8_" class="st0" points="633,1185 633,1125 678,1125 678,1115 "/>
<rect id="x323" x="613" y="999.7" class="st1" width="65" height="115"/>
<rect id="x322" x="708" y="999.7" class="st3" width="65" height="115"/>
<rect id="x324" x="708" y="935" class="st3" width="65" height="65"/>
<rect id="x325" x="707.8" y="820.3" class="st1" width="90" height="115"/>
<rect id="x327" x="707.8" y="755.7" class="st1" width="65" height="65"/>
<rect id="x328" x="707.8" y="690.5" class="st1" width="65" height="65"/>
<rect id="XMLID_1_" x="678" y="405.6" class="st5" width="29.8" height="285"/>
<line id="XMLID_10_" class="st4" x1="613" y1="999.7" x2="613" y2="935"/>
<rect id="x326" x="613" y="820.3" class="st1" width="65" height="115"/>
<polyline id="XMLID_11_" class="st4" points="613,820.3 613,755.5 678,755.5 "/>
<polyline id="XMLID_12_" class="st4" points="678,690.6 613,690.5 613,755.5 "/>
<polyline id="XMLID_13_" class="st4" points="783,245.6 623,245.6 623,405.6 783,405.6 "/>
<rect id="x139" x="782.5" y="245.6" class="st4" width="280" height="65"/>
<rect id="x88" x="782.5" y="340.6" class="st4" width="280" height="65"/>
<line id="XMLID_16_" class="st4" x1="782.5" y1="310.6" x2="782.5" y2="320.5"/>
<rect id="XMLID_14_" x="1062.8" y="340.6" class="st4" width="70" height="65"/>
<polyline id="XMLID_15_" class="st4" points="1062.5,245.6 1128,245.6 1128,310.6 1153,310.6 1153,245.6 "/>
<polyline id="XMLID_18_" class="st4" points="1132.8,340.6 1153,340.6 1153,405.6 1132.8,405.6 "/>
<path id="xკაფეტერია" class="st6" d="M1153,420.7h420V356h10c0-230,0-230,0-230h20V56h-85h85V26h-450V420.7z"/>
<text transform="matrix(1 0 0 1 141.5 1330)" class="st7 st8">301</text>
<text transform="matrix(1 0 0 1 203.5 1329.5)" class="st7 st8">302</text>
<text transform="matrix(1 0 0 1 313.5 1329.5)" class="st7 st8">303</text>
<text transform="matrix(4.489659e-011 -1 1 4.489659e-011 287.498 1236.502)" class="st7 st8">304</text>
<text transform="matrix(1 0 0 1 316 1222)" class="st7 st8">305</text>
<text transform="matrix(1 0 0 1 433 1327.5)" class="st7 st8">306</text>
<text transform="matrix(4.489659e-011 -1 1 4.489659e-011 508.498 1235.002)" class="st7 st8">308</text>
<text transform="matrix(1 0 0 1 492.5 1326)" class="st7 st8">307-1</text>
<text transform="matrix(1 0 0 1 563 1325.5)" class="st7 st8">307-2</text>
<text transform="matrix(1 0 0 1 547 1224)" class="st7 st8">309</text>
<text transform="matrix(1 0 0 1 650 1324)" class="st7 st8">310</text>
<text transform="matrix(4.489659e-011 -1 1 4.489659e-011 854.998 1231.002)" class="st7 st8">312</text>
<text transform="matrix(4.489659e-011 -1 1 4.489659e-011 852.498 1339.002)" class="st7 st8">311</text>
<text transform="matrix(1 0 0 1 899 1225)" class="st7 st8">314</text>
<text transform="matrix(1 0 0 1 896 1322)" class="st7 st8">313</text>
<text transform="matrix(1 0 0 1 994 1324)" class="st7 st8">315</text>
<text transform="matrix(4.489659e-011 -1 1 4.489659e-011 1074.498 1238.502)" class="st7 st8">317</text>
<text transform="matrix(4.489659e-011 -1 1 4.489659e-011 1078.9961 1344.002)" class="st7 st8">316</text>
<text transform="matrix(1 0 0 1 1125 1323)" class="st7 st8">318</text>
<text transform="matrix(1 0 0 1 1120.5 1221)" class="st7 st8">319</text>
<text transform="matrix(1 0 0 1 1236.5 1331.5)" class="st7 st8">320</text>
<text transform="matrix(1 0 0 1 1353 1292)" class="st7 st8">321</text>
<text transform="matrix(1 0 0 1 630 1061)" class="st7 st8">323</text>
<text transform="matrix(1 0 0 1 731 1063.2)" class="st7 st8">322</text>
<text transform="matrix(1 0 0 1 730.8 879)" class="st7 st8">325</text>
<text transform="matrix(1 0 0 1 728 976.35)" class="st7 st8">324</text>
<text transform="matrix(1 0 0 1 632.5 888)" class="st7 st8">326</text>
<text transform="matrix(1 0 0 1 731 786)" class="st7 st8">327</text>
<text transform="matrix(1 0 0 1 725.8 728)" class="st7 st8">328</text>
<text transform="matrix(1 0 0 1 889 275)" class="st7 st8">139</text>
<text transform="matrix(1 0 0 1 884 385)" class="st7 st8">88</text>
<text transform="matrix(1 0 0 1 1280 239)" class="st7 st8">კაფეტერია</text>
</svg>
