<?xml version="1.0" encoding="utf-8"?>
<!-- Generator: Adobe Illustrator 19.0.0, SVG Export Plug-In . SVG Version: 6.00 Build 0)  -->
<svg version="1.1" id="Layer_1" xmlns="http://www.w3.org/2000/svg"  x="0px" y="0px"
	 viewBox="0 0 1800 1500" style="enable-background:new 0 0 1800 1500;" xml:space="preserve">
<style type="text/css">
	.st0{fill:#7AF441;stroke:#000000;stroke-width:2;stroke-miterlimit:10;}
	.st1{fill:none;stroke:#000000;stroke-miterlimit:10;}
	.st2{fill:#FFFFFF;stroke:#000000;stroke-miterlimit:10;}
	.st3{fill:#EB42F4;stroke:#000000;stroke-width:2;stroke-miterlimit:10;}
	.st4{fill:#FFFF00;stroke:#000000;stroke-width:2;stroke-miterlimit:10;}
</style>
<path id="x200" class="st0" d="M27.7,1471h180v-65.3H181c-2.3-0.1-7.8-0.6-8.6-3.3c0-0.1,0-0.2-0.1-0.3c0-1.9,0-3.9,0-5.8v-110H27.7
	V1471L27.7,1471z"/>
<line id="C_PathE__1_" class="st1" x1="205.4" y1="1471" x2="1590.4" y2="1471"/>
<polyline class="st2" points="172.3,1286.3 172.3,1231.3 217.4,1231.3 217.4,1221.3 237.4,1221.3 237.4,1231 282.4,1231 282.4,1326 
	282.4,1286.3 352.4,1286.3 "/>
<rect id="x204" x="352.4" y="1286.3" class="st0" width="155" height="65"/>
<rect id="x203" x="352.4" y="1406" class="st0" width="155" height="65"/>
<rect id="x201" x="207.7" y="1405.7" class="st3" width="75" height="65"/>
<rect id="x202" x="282.7" y="1405.7" class="st3" width="69.7" height="65"/>
<rect id="x205" x="507.4" y="1406" class="st4" width="70" height="65"/>
<rect id="x207" x="577.4" y="1286.3" class="st0" width="155" height="65"/>
<line class="st1" x1="507.4" y1="1286.3" x2="577.4" y2="1286.3"/>
<rect id="x206" x="577.4" y="1406" class="st0" width="155" height="65"/>
<rect id="x208" x="732.4" y="1406" class="st4" width="115" height="65"/>
<rect id="x209" x="917.4" y="1405.6" class="st4" width="40" height="65"/>
<rect id="x218" x="1490.1" y="1346.3" class="st0" width="100" height="125"/>
<rect id="x217" x="1375.1" y="1405.3" class="st4" width="115" height="65"/>
<polyline class="st1" points="732.4,1286.3 732.4,1231.3 777.4,1231.3 777.4,1215.8 712.4,1215.8 "/>
<polyline class="st1" points="847.4,1286.3 1375.1,1285.3 1375.1,1230.3 1424.9,1230.8 1424.9,1215.8 1454.9,1215.8 1454.9,1231.3 
	1490.1,1231.3 1490.1,1286.3 1590.1,1286.3 1590.1,1471.3 "/>
<rect id="x210" x="917.4" y="1286.2" class="st4" width="40" height="65"/>
<rect id="x212" x="957.4" y="1286.2" class="st4" width="115" height="65"/>
<rect id="x211" x="957.4" y="1405.6" class="st4" width="115" height="65"/>
<rect id="x213" x="1072.4" y="1405.6" class="st4" width="75" height="65"/>
<rect id="x214" x="1147.4" y="1405.6" class="st4" width="227.7" height="65"/>
<rect id="x215" x="1147.4" y="1285.7" class="st4" width="40" height="65"/>
<rect id="x216" x="1187.4" y="1285.7" class="st4" width="187.7" height="65"/>
<rect id="x220" x="712.4" y="1100.6" class="st4" width="65" height="115"/>
<rect id="x219" x="808.1" y="1100.6" class="st4" width="65" height="115"/>
<polyline class="st1" points="808.1,1215.6 808.1,1231.3 847.4,1231.3 847.4,1286.3 847.4,1331.3 "/>
<rect id="x221" x="808.1" y="1030.6" class="st4" width="65" height="70"/>
<rect id="x222" x="808.1" y="915.3" class="st4" width="90" height="115"/>
<rect id="x224" x="808.1" y="845" class="st4" width="65" height="70"/>
<rect id="x225" x="808.1" y="775.3" class="st4" width="65" height="70"/>
<line class="st1" x1="712.4" y1="845.3" x2="777.4" y2="845.3"/>
<rect id="x223" x="712.4" y="915" class="st4" width="65" height="115"/>
<path class="st2" d="M2041.4,896.3"/>
<polyline class="st1" points="712.4,915 712.4,775.3 777.4,775.3 777.4,475.3 712.4,475.3 712.4,315.5 873.1,315.5 873.1,416 "/>
<line class="st1" x1="712.4" y1="1030" x2="712.4" y2="1100.6"/>
<rect id="B1" x="873.1" y="315.5" class="st1" width="140" height="60"/>
<rect id="ტ1_x2C_4" x="1013.1" y="315.5" class="st1" width="140" height="60"/>
<polyline class="st1" points="1153.1,315.5 1223,315.5 1223,405.7 1188,405.7 "/>
<polygon id="კულინარიის_აკადემია" class="st1" points="1243,405.7 1332.7,405.7 1332.7,440 
	1598,440 1598,485.7 1668,485.7 1668,415.7 1598,415.7 1668,415.7 1668,185.7 1683,185.7 1683,75.7 1243,75.7 "/>
<path class="st1" d="M873.1,775.3"/>
<polyline class="st1" points="1332.7,440 873.1,440 873.1,475.3 808.1,475.3 808.1,775.3 "/>
<line class="st1" x1="1223" y1="315.5" x2="1243" y2="315.5"/>
</svg>
